<?xml version="1.0" encoding="UTF-8"?>
<svg id="Layer_1" data-name="Layer 1" xmlns="http://www.w3.org/2000/svg" version="1.1" viewBox="0 0 1080 1080">
  <defs>
    <style>
      .cls-1 {
        font-family: OmnesArabic-Hairline, OmnesArabic;
        font-size: 63.22px;
        font-weight: 100;
      }

      .cls-1, .cls-2 {
        fill: #232323;
      }

      .cls-3 {
        fill: none;
      }

      .cls-3, .cls-4, .cls-5, .cls-6 {
        stroke-width: 0px;
      }

      .cls-4 {
        fill: #97c93c;
      }

      .cls-5 {
        fill: #299345;
      }

      .cls-2 {
        font-family: NiagaraSolid-Reg, 'Niagara Solid';
        font-size: 163.84px;
      }

      .cls-6 {
        fill: #fff;
      }
    </style>
  </defs>
  <g>
    <g>
      <circle class="cls-5" cx="599.04" cy="410.71" r="173.96"/>
      <g>
        <path class="cls-3" d="M598.07,236.77c-95.63.52-173,78.19-173,173.94s77.37,173.42,173,173.94V236.77Z"/>
        <path class="cls-5" d="M599.04,584.67c96.08,0,173.96-77.89,173.96-173.96s-77.89-173.96-173.96-173.96c-.32,0-.64.02-.97.02v347.88c.32,0,.64.02.97.02Z"/>
      </g>
    </g>
    <g>
      <path class="cls-6" d="M643.54,315.37h-84.71c-28.74,0-52.05,23.3-52.05,52.05v84.71c0,28.74,23.3,52.05,52.05,52.05h84.71c28.74,0,52.04-23.3,52.04-52.05v-84.71c0-28.74-23.3-52.05-52.04-52.05ZM680.33,451.91c0,20.44-16.57,37.01-37.01,37.01h-84.28c-20.44,0-37.01-16.57-37.01-37.01v-84.28c0-20.44,16.57-37.01,37.01-37.01h84.28c20.44,0,37.01,16.57,37.01,37.01v84.28Z"/>
      <path class="cls-6" d="M601.18,360.01c-27.48,0-49.75,22.28-49.75,49.76s22.28,49.75,49.75,49.75,49.76-22.28,49.76-49.75-22.28-49.76-49.76-49.76ZM601.18,442.22c-17.92,0-32.45-14.53-32.45-32.45s14.53-32.45,32.45-32.45,32.45,14.53,32.45,32.45-14.53,32.45-32.45,32.45Z"/>
      <path class="cls-6" d="M663.79,358.36c0,6.16-5,11.16-11.16,11.16s-11.16-5-11.16-11.16,5-11.16,11.16-11.16,11.16,5,11.16,11.16Z"/>
    </g>
  </g>
  <g>
    <path class="cls-5" d="M404.54,490.12h-62.29c-10.24,0-20.06,4.07-27.3,11.31l-54.67,54.67h146.09l-1.82-65.98Z"/>
    <path class="cls-5" d="M511.5,597.08v62.29c0,10.24-4.07,20.06-11.31,27.3l-54.67,54.67v-146.09l65.98,1.82Z"/>
    <path class="cls-6" d="M574.91,426.6h0s0,0,0,0c-58.52-12.97-119.8-1.65-169.83,31.35l-26.49,17.47c-25.86,17.06-38.05,48.64-30.35,78.65h0c2.94,11.49,8.92,21.97,17.31,30.36l51.52,51.52c8.39,8.39,18.87,14.36,30.36,17.31h0c30.01,7.69,61.59-4.5,78.65-30.35l17.47-26.49c33.01-50.03,44.32-111.31,31.35-169.83Z"/>
    <path class="cls-4" d="M441.2,438.68l121.63,121.63c17.64-41.94,22.06-88.64,12.08-133.71h0c-45.07-9.99-91.77-5.56-133.71,12.08Z"/>
    <path class="cls-4" d="M362.34,490.12c-14.32,17.55-19.93,41.2-14.1,63.96h0c2.94,11.49,8.92,21.97,17.31,30.36l51.52,51.52c8.39,8.39,18.87,14.36,30.36,17.31,22.76,5.83,46.41.22,63.96-14.1l-149.05-149.05Z"/>
    <circle class="cls-5" cx="502.02" cy="499.49" r="33.86"/>
    <path class="cls-4" d="M377.64,623.87h0c-5.59-5.59-14.65-5.59-20.24,0l-94.51,94.51c-5.59,5.59-5.59,14.65,0,20.24h0c5.59,5.59,14.65,5.59,20.23,0l94.51-94.51c5.59-5.59,5.59-14.65,0-20.24Z"/>
    <g>
      <path class="cls-4" d="M332.72,600.66h0c-5.59-5.59-14.65-5.59-20.23,0l-54.54,54.54c-5.59,5.59-5.59,14.65,0,20.24h0c5.59,5.59,14.65,5.59,20.23,0l54.54-54.54c5.59-5.59,5.59-14.65,0-20.24Z"/>
      <path class="cls-4" d="M400.85,668.79h0c-5.59-5.59-14.65-5.59-20.24,0l-54.54,54.54c-5.59,5.59-5.59,14.65,0,20.23h0c5.59,5.59,14.65,5.59,20.24,0l54.54-54.54c5.59-5.59,5.59-14.65,0-20.23Z"/>
    </g>
  </g>
  <text class="cls-2" transform="translate(529.81 696.54)"><tspan x="0" y="0">instq8</tspan></text>
  <text class="cls-1" transform="translate(1106.76 646.25)"><tspan x="0" y="0">fast post designs for </tspan><tspan x="99.03" y="75.86">social media</tspan></text>
</svg>